# xmcd CD database file
#
# Track frame offsets:
#	150
#	18686
#	35036
#	48780
#	74867
#	94309
#	111270
#	135002
#	167192
#	183946
#	203360
#	223011
#
# Disc length: 3621 seconds
#
# Revision: 0
# Processed by: cddbd v1.5.2PL0 Copyright (c) Steve Scherf et al.
# Submitted via: CDex 1.51
#
DISCID=ab0e230c
DTITLE=Seasick Steve - cheap
DYEAR=1900
DGENRE=Blues
TTITLE0=Cheap
TTITLE1=Rockin Chair
TTITLE2=Hobo Blues
TTITLE3=Story #1
TTITLE4=Sorry Mr Jesus
TTITLE5=Love Thang
TTITLE6=Dr Jeckil and Mr Hyde
TTITLE7=Story #2
TTITLE8=8ball
TTITLE9=Xmass Prison Blues
TTITLE10=Levi Song
TTITLE11=Rooster Blues
EXTD=
EXTT0=
EXTT1=
EXTT2=
EXTT3=
EXTT4=
EXTT5=
EXTT6=
EXTT7=
EXTT8=
EXTT9=
EXTT10=
EXTT11=
PLAYORDER=
